Coordinates
version=1
nRows=23
nColumns=33
inDegrees=yes

Units are S.I. units (second, meters, Newtons, ...)
Angles are in degrees.

endheader
time	ground_thorax_rot_x	ground_thorax_rot_y	ground_thorax_rot_z	ground_thorax_tx	ground_thorax_ty	ground_thorax_tz	clav_prot_r	clav_elev_r	scapula_abduction_r	scapula_elevation_r	scapula_upward_rot_r	scapula_winging_r	shoulder_elv_r	plane_of_elev_r	axial_rot_r	elbow_flexion_r	pro_sup_r	wrist_flex_r	wrist_dev_r	clav_prot_l	clav_elev_l	scapula_abduction_l	scapula_elevation_l	scapula_upward_rot_l	scapula_winging_l	shoulder_elv_l	plane_of_elev_l	axial_rot_l	elbow_flexion_l	pro_sup_l	wrist_flex_l	wrist_dev_l	
3.5600	39.415172	0.639577	2.894098	-148.473411	897.443266	-9.277275	-3.902789	40.068802	45.000000	45.000000	39.734202	963.821443	-2811.282841	18.997334	-180.000000	1446.742185	-44.310796	23.063390	7.801740	12.643339	-45.000000	-44.919628	45.000000	-27.382817	-3142.931961	-3161.498750	18.371397	-53.932177	12.661586	39.786257	6.140339	-22.432747	
3.5700	39.297609	0.426669	2.599805	-145.227196	898.006381	-8.976636	-4.170595	39.865365	45.000000	44.999999	41.063018	963.755791	-2811.203569	19.067189	-180.000000	1446.786686	-44.745635	23.124081	7.881192	12.345478	-45.000000	-44.978159	45.000000	-26.256493	-3143.175727	-3161.387136	18.406542	-53.644741	12.453044	37.476150	6.488431	-22.457149	
3.5800	39.174929	0.241854	2.359128	-141.878858	898.289323	-8.653462	-4.369565	39.686350	45.000000	44.999999	42.247058	963.717922	-2811.172533	19.113444	-180.000000	1446.824736	-45.342190	23.168664	7.983770	12.041382	-45.000000	-45.000000	45.000000	-25.227837	-3143.447368	-3161.319262	18.453744	-53.361677	12.219683	34.920159	6.878573	-22.461722	
3.5900	39.049597	0.088039	2.170744	-138.431098	898.288359	-8.308540	-4.482842	39.554593	45.000000	44.999998	43.238051	963.719883	-2811.202848	19.132906	-180.000000	1446.849274	-46.126699	23.210922	8.097292	11.767024	-45.000000	-45.000000	45.000000	-24.311347	-3143.726572	-3161.309979	18.535735	-53.093521	11.962985	32.178597	7.304395	-22.442573	
3.6000	38.919813	-0.020930	2.044030	-134.886836	898.002167	-7.942517	-4.574780	39.458855	45.000000	44.999997	44.001285	963.741762	-2811.308005	19.141510	-180.000000	1446.857002	-47.106066	23.247259	8.224661	11.513902	-45.000000	-45.000000	45.000000	-23.459208	-3144.023986	-3161.347473	18.605351	-52.824769	11.701296	29.315182	7.763010	-22.400757	
3.6100	38.786387	-0.090039	1.970317	-131.249481	897.430632	-7.556066	-4.668547	39.400218	45.000000	44.999994	44.522024	963.773591	-2811.501779	19.150372	-180.000000	1446.843782	-48.278095	23.282461	8.356791	11.267150	-45.000000	-45.000000	45.000000	-22.663553	-3144.338319	-3161.432544	18.667814	-52.567596	11.436281	26.390130	8.250673	-22.331294	
3.6200	38.648028	-0.119095	1.950379	-127.523218	896.574079	-7.150102	-4.805924	39.361045	45.000000	44.999990	44.827422	963.802845	-2811.776130	19.162900	-180.000000	1446.813672	-49.638542	23.306216	8.503539	11.009405	-45.000000	-45.000000	45.000000	-21.897410	-3144.687044	-3161.549827	18.688949	-52.309475	11.183120	23.465516	8.756826	-22.233358	
3.6300	38.507707	-0.123515	1.965988	-123.713235	895.432610	-6.726009	-4.947905	39.347131	45.000000	44.999982	44.962449	963.835371	-2812.117076	19.171954	-180.000000	1446.773739	-51.191199	23.319607	8.664568	10.758978	-45.000000	-45.000000	45.000000	-21.191014	-3145.053352	-3161.713097	18.709260	-52.055466	10.938717	20.610676	9.264142	-22.102054	
3.6400	38.361379	-0.109056	2.011423	-119.826109	894.006209	-6.285893	-5.126235	39.335907	45.000000	44.999968	45.000000	963.853535	-2812.502730	19.175759	-180.000000	1446.737836	-52.940952	23.307463	8.858653	10.500190	-45.000000	-45.000000	45.000000	-20.517764	-3145.451650	-3161.904879	18.700732	-51.779698	10.716784	17.880489	9.761151	-21.941107	
3.6500	38.212190	-0.092392	2.066220	-115.869230	892.295265	-5.832681	-5.298094	39.334558	45.000000	44.999942	45.000000	963.858424	-2812.914187	19.166342	-180.000000	1446.710825	-54.905520	23.269314	9.085823	10.255316	-45.000000	-45.000000	45.000000	-19.902944	-3145.863522	-3162.141004	18.706497	-51.484330	10.506838	15.325314	10.236764	-21.751622	
3.6600	38.060347	-0.073429	2.129664	-111.850636	890.301791	-5.370167	-5.445327	39.339168	45.000000	44.999896	45.000000	963.850345	-2813.332221	19.135248	-180.000000	1446.701939	-57.097116	23.194868	9.355515	10.034807	-45.000000	-45.000000	45.000000	-19.358913	-3146.293281	-3162.414387	18.723843	-51.154168	10.313384	12.997041	10.679159	-21.540056	
3.6700	37.909016	-0.054443	2.196107	-107.778127	888.030767	-4.902823	-5.540181	39.360465	45.000000	44.999815	44.999999	963.832981	-2813.755272	19.081499	-180.000000	1446.714038	-59.528956	23.086133	9.661454	9.853707	-45.000000	-45.000000	45.000000	-18.910268	-3146.726777	-3162.737307	18.783566	-50.786119	10.124778	10.937930	11.081046	-21.308975	
3.6800	37.756516	-0.030320	2.270508	-103.659040	885.491632	-4.435519	-5.634309	39.383547	45.000000	44.999668	44.999999	963.791900	-2814.186799	19.013791	-180.000000	1446.753154	-62.196476	22.933920	10.006783	9.684616	-45.000000	-45.000000	45.000000	-18.525767	-3147.179755	-3163.091984	18.851568	-50.359188	9.944771	9.159003	11.447914	-21.066646	
3.6900	37.604472	-0.005008	2.348553	-99.499622	882.699112	-3.973036	-5.739351	39.407028	45.000000	44.999405	44.999998	963.724247	-2814.631570	18.934831	-180.000000	1446.817710	-65.093224	22.736661	10.384043	9.523001	-45.000000	-45.000000	45.000000	-18.201821	-3147.650116	-3163.477381	18.932553	-49.866610	9.764713	7.650911	11.787515	-20.817628	
3.7000	37.455719	0.019744	2.428570	-95.305344	879.673477	-3.519651	-5.852700	39.431136	45.000000	44.998934	44.999996	963.632597	-2815.087974	18.844539	-180.000000	1446.909131	-68.205678	22.492667	10.786622	9.369222	-45.000000	-45.000000	45.000000	-17.937380	-3148.136833	-3163.889911	19.027693	-49.306095	9.580728	6.401722	12.102795	-20.565263	
3.7100	37.310871	0.046404	2.513353	-91.081443	876.440098	-3.078829	-5.969383	39.454127	45.000000	44.998091	44.999993	963.517784	-2815.555020	18.740816	-180.000000	1447.025867	-71.505695	22.199148	11.205866	9.226302	-45.000000	-45.000000	45.000000	-17.736184	-3148.639570	-3164.322337	19.137155	-48.673419	9.391490	5.393209	12.396262	-20.312327	
3.7200	37.172419	0.070561	2.599372	-86.833603	873.028230	-2.653121	-6.092462	39.476705	45.000000	44.996579	44.999987	963.383180	-2816.033873	18.625760	-180.000000	1447.168381	-74.970313	21.858691	11.632828	9.091221	-45.000000	-45.000000	45.000000	-17.588036	-3149.155472	-3164.771256	19.261461	-47.971216	9.194488	4.605473	12.671948	-20.060843	
3.7300	37.040624	0.097068	2.692996	-82.568507	869.469517	-2.244211	-6.210100	39.500011	45.000000	44.993876	44.999977	963.233244	-2816.520491	18.494627	-180.000000	1447.331418	-78.555390	21.472244	12.055910	8.969212	-45.000000	-45.000000	45.000000	-17.501364	-3149.683891	-3165.227682	19.399782	-47.203526	8.989770	4.019555	12.931120	-19.812867	
3.7400	36.919287	0.119328	2.788629	-78.293907	865.796166	-1.852963	-6.330481	39.524415	45.000000	44.989017	44.999958	963.070861	-2817.017103	18.355191	-180.000000	1447.514830	-82.228751	21.048291	12.466144	8.853646	-45.000000	-45.000000	45.000000	-17.457358	-3150.219986	-3165.694939	19.553934	-46.372903	8.771922	3.622374	13.176032	-19.568765	
3.7500	36.806902	0.145994	2.895192	-74.018692	862.039659	-1.479423	-6.428031	39.548752	45.000000	44.980363	44.999925	962.902890	-2817.516989	18.197479	-180.000000	1447.707414	-85.912693	20.588486	12.849520	8.755913	-45.000000	-45.000000	45.000000	-17.482007	-3150.765325	-3166.156376	19.725098	-45.494285	8.546082	3.404379	13.405793	-19.332482	
3.7600	36.705545	0.168689	3.005266	-69.751994	858.229156	-1.122601	-6.524517	39.572195	45.000000	44.964719	44.999866	962.727737	-2818.024874	18.034401	-180.000000	1447.909960	-89.569525	20.106050	13.199095	8.660651	-45.000000	-45.000000	45.000000	-17.536637	-3151.315229	-3166.617683	19.908979	-44.563702	8.305690	3.364407	13.622328	-19.104719	
3.7700	36.613787	0.192616	3.124926	-65.502770	854.390692	-0.780284	-6.602321	39.592801	45.000000	44.937097	44.999760	962.552913	-2818.534215	17.861281	-180.000000	1448.116339	-93.141804	19.605023	13.507155	8.573219	-45.000000	-45.000000	45.000000	-17.629321	-3151.868440	-3167.068687	20.103710	-43.599798	8.053887	3.506054	13.820988	-18.889727	
3.7800	36.532864	0.205021	3.241941	-61.279112	850.546395	-0.448872	-6.694887	39.604668	45.000000	44.886500	44.999571	962.378095	-2819.049833	17.697965	-180.000000	1448.332566	-96.639617	19.095532	13.774512	8.471190	-45.000000	-45.000000	45.000000	-17.704088	-3152.417462	-3167.522001	20.302568	-42.608567	7.782942	3.840735	13.997766	-18.688269	
